<?xml version="1.0" encoding="iso-8859-1"?>
<!-- Generator: Adobe Illustrator 19.0.0, SVG Export Plug-In . SVG Version: 6.00 Build 0)  -->
<svg version="1.1" id="Layer_1" xmlns="http://www.w3.org/2000/svg" xmlns:xlink="http://www.w3.org/1999/xlink" x="0px" y="0px"
	 viewBox="0 0 512 512" style="enable-background:new 0 0 512 512;" xml:space="preserve">
<rect x="131.061" y="316.324" transform="matrix(-0.7071 -0.7071 0.7071 -0.7071 18.2806 716.1047)" style="fill:#C8E6FF;" width="52.779" height="75.884"/>
<path style="fill:#ADD9FF;" d="M415.358,164.504L199.487,380.375c0,0-16.218-7.738-31.2-22.72
	c-9.333-9.333-37.328-37.328-37.328-37.328c-6.355-6.355-6.355-16.754,0-23.109L339.515,88.661L415.358,164.504z"/>
<path style="fill:#94C8EF;" d="M399.952,149.098L191.395,357.656c-6.355,6.355-16.754,6.355-23.109,0l23.109,23.109
	c6.355,6.355,16.754,6.355,23.109,0l208.557-208.557L399.952,149.098z"/>
<path style="fill:#C8E6FF;" d="M123.701,359.292l-33.17,33.17c-4.237,4.237-4.237,11.169,0,15.406l13.325,13.325
	c4.237,4.237,11.169,4.237,15.406,0l33.17-33.17L123.701,359.292z"/>
<rect x="346.489" y="71.919" transform="matrix(-0.7071 0.7071 -0.7071 -0.7071 774.5448 -122.7996)" style="fill:#ADD9FF;" width="132.432" height="54.19"/>
<polygon style="fill:#C8E6FF;" points="304.741,169.66 362.63,111.771 399.951,149.093 342.063,206.982 301.622,212.759 "/>
<rect x="155.471" y="231.484" transform="matrix(-0.7071 0.7071 -0.7071 -0.7071 615.6747 260.7256)" style="fill:#FFFFFF;" width="196.737" height="52.779"/>
<g>
	<path style="fill:#7AB6DE;" d="M445.226,205.924L305.799,66.495c-3.191-3.191-3.191-8.364,0-11.555
		c3.191-3.191,8.363-3.191,11.555,0l139.428,139.427c3.191,3.191,3.191,8.364,0,11.555
		C453.59,209.115,448.418,209.115,445.226,205.924z"/>
	<path style="fill:#7AB6DE;" d="M497.776,101.991l-88.044-88.043c-3.191-3.191-3.191-8.364,0-11.555
		c3.191-3.191,8.363-3.191,11.555,0l88.044,88.044c3.191,3.191,3.191,8.364,0,11.555S500.967,105.182,497.776,101.991z"/>
</g>
<g>
	<path style="fill:#ADD9FF;" d="M208.838,293.989l-14.213-14.213c-3.191-3.191-3.191-8.364,0-11.555
		c3.191-3.191,8.363-3.191,11.555,0l14.213,14.213c3.191,3.191,3.191,8.364,0,11.555C217.202,297.18,212.029,297.18,208.838,293.989
		z"/>
	<path style="fill:#ADD9FF;" d="M243.617,259.209l-14.213-14.213c-3.191-3.191-3.191-8.364,0-11.555
		c3.191-3.191,8.363-3.191,11.555,0l14.213,14.213c3.191,3.191,3.191,8.364,0,11.555C251.981,262.4,246.809,262.4,243.617,259.209z"
		/>
	<path style="fill:#ADD9FF;" d="M278.397,224.43l-14.213-14.213c-3.191-3.191-3.191-8.364,0-11.555
		c3.191-3.191,8.363-3.191,11.555,0l14.213,14.213c3.191,3.191,3.191,8.364,0,11.555S281.588,227.621,278.397,224.43z"/>
	<path style="fill:#ADD9FF;" d="M313.176,189.65l-14.213-14.213c-3.191-3.191-3.191-8.364,0-11.555
		c3.191-3.191,8.363-3.191,11.555,0l14.213,14.213c3.191,3.191,3.191,8.364,0,11.555C321.54,192.841,316.368,192.841,313.176,189.65
		z"/>
</g>
<g>
	<path style="fill:#1D2328;" d="M336.285,201.205l-133.34,133.34l-25.768-25.768l23.225-23.225l8.436,8.436
		c1.595,1.596,3.686,2.393,5.777,2.393s4.182-0.797,5.778-2.393c3.191-3.191,3.191-8.364-0.001-11.555l-8.435-8.435l23.225-23.225
		l8.436,8.435c1.596,1.595,3.687,2.393,5.778,2.393c2.09,0,4.182-0.797,5.778-2.393c3.191-3.191,3.191-8.364,0-11.554l-8.436-8.436
		l23.225-23.225l8.436,8.436c1.595,1.596,3.686,2.393,5.777,2.393c2.09,0,4.182-0.797,5.778-2.393
		c3.191-3.191,3.191-8.364-0.001-11.554l-8.436-8.435l23.225-23.225l8.435,8.435c1.596,1.596,3.686,2.393,5.778,2.393
		c2.09,0,4.182-0.797,5.777-2.393c3.192-3.191,3.192-8.363,0.001-11.555l-14.212-14.212c-1.197-1.197-2.672-1.945-4.218-2.244
		c-0.138-0.027-0.278-0.04-0.416-0.06c-0.12-0.017-0.24-0.04-0.361-0.052c-2.344-0.224-4.766,0.56-6.562,2.355L159.844,303
		c-1.532,1.532-2.392,3.61-2.392,5.777c0,2.167,0.861,4.245,2.392,5.777l37.323,37.322c1.596,1.595,3.687,2.393,5.778,2.393
		c2.09,0,4.182-0.797,5.778-2.393l139.118-139.118c3.191-3.191,3.191-8.364,0-11.554
		C344.649,198.014,339.477,198.014,336.285,201.205z"/>
	<path style="fill:#1D2328;" d="M317.354,54.942c-3.192-3.191-8.364-3.191-11.555,0c-3.191,3.191-3.191,8.364,0,11.554
		l22.166,22.166L125.182,291.448c-9.555,9.557-9.555,25.107,0,34.662l60.431,60.43c4.617,4.617,10.773,7.159,17.332,7.159
		c6.56,0,12.716-2.543,17.332-7.159L423.06,183.757l22.166,22.166c1.596,1.595,3.688,2.393,5.778,2.393
		c2.091,0,4.182-0.797,5.778-2.393c3.191-3.191,3.191-8.364,0-11.554L317.354,54.942z M208.722,374.986
		c-1.529,1.531-3.581,2.373-5.777,2.373c-2.195,0-4.246-0.843-5.777-2.374l-60.431-60.43c-3.185-3.185-3.185-8.37,0-11.555
		L339.52,100.218l71.985,71.985L208.722,374.986z"/>
	<path style="fill:#1D2328;" d="M509.331,90.437L484.47,65.576c0,0-0.001-0.001-0.001-0.002l-0.001-0.001l-63.181-63.18
		c-3.192-3.191-8.364-3.191-11.555,0c-3.191,3.191-3.191,8.364,0,11.554l19.086,19.086l-49.354,49.355
		c-3.191,3.191-3.191,8.364,0,11.554c1.596,1.595,3.688,2.393,5.778,2.393c2.09,0,4.182-0.797,5.778-2.393l49.354-49.355
		l26.765,26.763l-49.355,49.355c-3.191,3.191-3.191,8.364,0,11.554c1.596,1.595,3.688,2.393,5.778,2.393
		c2.09,0,4.182-0.797,5.778-2.393l49.355-49.355l19.086,19.086c1.596,1.595,3.688,2.393,5.778,2.393s4.182-0.797,5.778-2.393
		C512.521,98.8,512.521,93.627,509.331,90.437z"/>
	<path style="fill:#1D2328;" d="M158.219,382.255c-0.003-0.003-0.005-0.007-0.009-0.01c-0.003-0.003-0.007-0.005-0.01-0.009
		l-28.72-28.72c0,0,0-0.001-0.001-0.001c0,0,0-0.001-0.001-0.001l-7.702-7.703c-3.191-3.191-8.363-3.192-11.555,0
		c-3.191,3.191-3.191,8.364,0,11.555l1.926,1.926l-27.392,27.393c-3.593,3.593-5.571,8.379-5.571,13.481
		c0,5.1,1.978,9.888,5.57,13.48l1.161,1.161L2.669,498.053c-3.191,3.191-3.191,8.364,0,11.554C4.265,511.202,6.356,512,8.447,512
		s4.182-0.797,5.778-2.393l83.245-83.245l0.608,0.608c3.717,3.717,8.598,5.574,13.481,5.574c4.88,0,9.764-1.858,13.48-5.574
		l27.393-27.393l1.925,1.925c1.596,1.596,3.686,2.393,5.778,2.393c2.09,0,4.182-0.797,5.778-2.393c3.191-3.191,3.191-8.364,0-11.555
		L158.219,382.255z M113.483,415.416c-1.041,1.043-2.806,1.045-3.85,0L96.308,402.09c-0.682-0.682-0.784-1.499-0.784-1.925
		c0-0.427,0.102-1.243,0.785-1.926l27.393-27.393l17.176,17.176L113.483,415.416z"/>
</g>
<g>
</g>
<g>
</g>
<g>
</g>
<g>
</g>
<g>
</g>
<g>
</g>
<g>
</g>
<g>
</g>
<g>
</g>
<g>
</g>
<g>
</g>
<g>
</g>
<g>
</g>
<g>
</g>
<g>
</g>
</svg>
