<?xml version="1.0" encoding="iso-8859-1"?>
<!-- Generator: Adobe Illustrator 19.0.0, SVG Export Plug-In . SVG Version: 6.00 Build 0)  -->
<svg version="1.1" id="Layer_1" xmlns="http://www.w3.org/2000/svg" xmlns:xlink="http://www.w3.org/1999/xlink" x="0px" y="0px"
	 viewBox="0 0 426 426" style="enable-background:new 0 0 426 426;" xml:space="preserve">
<g>
	<rect y="299.75" style="fill:#D1D5D8;" width="426" height="57"/>
	<path style="fill:#EFEFEF;" d="M426,69.25H0v240.5h194.01c0,0.08-0.01,0.17-0.01,0.25c0,9.39,7.61,17,17,17s17-7.61,17-17
		c0-0.08-0.01-0.17-0.01-0.25H426V69.25z"/>
	<polygon style="fill:#4898DA;" points="287.5,163.029 239.412,163.029 239.412,114.5 185.588,114.5 185.588,163.029 137.5,163.029 
		137.5,215.971 185.588,215.971 185.588,264.5 239.412,264.5 239.412,215.971 287.5,215.971 	"/>
	<path style="fill:#37495E;" d="M381,272.5c-4.418,0-8-3.582-8-8v-150c0-4.419,3.582-8,8-8s8,3.581,8,8v150
		C389,268.918,385.418,272.5,381,272.5z"/>
	<path style="fill:#37495E;" d="M342,272.5c-4.418,0-8-3.582-8-8v-150c0-4.419,3.582-8,8-8s8,3.581,8,8v150
		C350,268.918,346.418,272.5,342,272.5z"/>
	<path style="fill:#37495E;" d="M87,118H35c-4.419,0-8-3.581-8-8s3.581-8,8-8h52c4.419,0,8,3.581,8,8S91.419,118,87,118z"/>
	<path style="fill:#37495E;" d="M87,157.75H35c-4.419,0-8-3.581-8-8s3.581-8,8-8h52c4.419,0,8,3.581,8,8S91.419,157.75,87,157.75z"
		/>
	<path style="fill:#37495E;" d="M87,197.5H35c-4.419,0-8-3.582-8-8s3.581-8,8-8h52c4.419,0,8,3.582,8,8S91.419,197.5,87,197.5z"/>
	<path style="fill:#37495E;" d="M87,237.25H35c-4.419,0-8-3.582-8-8s3.581-8,8-8h52c4.419,0,8,3.582,8,8S91.419,237.25,87,237.25z"
		/>
	<path style="fill:#37495E;" d="M87,277H35c-4.419,0-8-3.582-8-8s3.581-8,8-8h52c4.419,0,8,3.582,8,8S91.419,277,87,277z"/>
</g>
<g>
</g>
<g>
</g>
<g>
</g>
<g>
</g>
<g>
</g>
<g>
</g>
<g>
</g>
<g>
</g>
<g>
</g>
<g>
</g>
<g>
</g>
<g>
</g>
<g>
</g>
<g>
</g>
<g>
</g>
</svg>
