<svg width="43" height="47" viewBox="0 0 43 47" fill="none" xmlns="http://www.w3.org/2000/svg">
<g filter="url(#filter0_d_2_488)">
<path d="M38.0013 19.2658C38.0013 29.9065 30.3901 38.5324 21.0013 38.5324C17.0609 38.5324 13.4337 37.0131 10.5508 34.4631L28.7833 13.7997C29.6535 15.387 30.1551 17.259 30.1551 19.2658C30.1551 24.0175 27.3363 28.0231 23.4905 29.2519C22.9167 28.4065 22.0151 27.8617 21.0013 27.8617C19.2679 27.8617 17.8628 29.4541 17.8628 31.4186C17.8628 33.383 19.2679 34.9755 21.0013 34.9755C22.2989 34.9755 23.4126 34.083 23.8905 32.8101C29.2853 31.3372 33.2936 25.832 33.2936 19.2658C33.2936 16.2759 32.4612 13.5041 31.0465 11.2347L34.4107 7.42188C36.6607 10.6892 38.0013 14.8 38.0013 19.2658Z" fill="#FFAF2E"/>
<path d="M10.9548 27.2977L7.59053 31.1105C5.34058 27.8432 4 23.7324 4 19.2667C4 8.62598 11.6112 0 21 0C24.9403 0 28.5676 1.51933 31.4505 4.06927L13.218 24.7327C12.3478 23.1455 11.8461 21.2735 11.8461 19.2667C11.8461 14.5149 14.6649 10.5093 18.5108 9.28048C19.0846 10.1259 19.9861 10.6708 21 10.6708C22.7333 10.6708 24.1385 9.07827 24.1385 7.11384C24.1385 5.1494 22.7333 3.55691 21 3.55691C19.7024 3.55691 18.5887 4.44943 18.1108 5.72236C12.716 7.19521 8.70768 12.7004 8.70768 19.2667C8.70768 22.2563 9.54001 25.0283 10.9548 27.2977Z" fill="#F04148"/>
<ellipse cx="20.9991" cy="7.11389" rx="1.30769" ry="1.48205" fill="#F04148"/>
<ellipse cx="20.9991" cy="31.4205" rx="1.30769" ry="1.48205" fill="#FFAF2E"/>
</g>
<defs>
<filter id="filter0_d_2_488" x="0" y="0" width="42.0012" height="46.5322" filterUnits="userSpaceOnUse" color-interpolation-filters="sRGB">
<feFlood flood-opacity="0" result="BackgroundImageFix"/>
<feColorMatrix in="SourceAlpha" type="matrix" values="0 0 0 0 0 0 0 0 0 0 0 0 0 0 0 0 0 0 127 0" result="hardAlpha"/>
<feOffset dy="4"/>
<feGaussianBlur stdDeviation="2"/>
<feComposite in2="hardAlpha" operator="out"/>
<feColorMatrix type="matrix" values="0 0 0 0 0 0 0 0 0 0 0 0 0 0 0 0 0 0 0.25 0"/>
<feBlend mode="normal" in2="BackgroundImageFix" result="effect1_dropShadow_2_488"/>
<feBlend mode="normal" in="SourceGraphic" in2="effect1_dropShadow_2_488" result="shape"/>
</filter>
</defs>
</svg>
